<svg id="Layer_1" data-name="Layer 1" xmlns="http://www.w3.org/2000/svg" viewBox="0 0 240.38 85.04">
  <defs>
    <style>
      .cls-1 {
        fill: #fff;
      }

      .cls-2 {
        fill: #40060e;
      }

      .cls-3 {
        fill: none;
        stroke: #fff;
        stroke-miterlimit: 10;
        stroke-width: 3px;
      }
    </style>
  </defs>
  <title>wordmark</title>
  <g>
    <path class="cls-1" d="M13.93,24.7v5.22c0,2.88-.18,10.5-.06,12.84.06,1.32.78,1.86,1.74,1.86h2.16c.54,0,.66.12.66.48v1.2c0,.36-.12.6-.42.6s-2.58-.18-8.4-.18c-3.9,0-6.95.18-7.43.18s-.48-.12-.48-.54V45c0-.3.12-.42.6-.42h2c1.13,0,1.61-.72,1.61-2L5.71,24.7H1.87c-.29,0-.42-.12-.35-.66l.3-2.1c.05-.36.24-.42.72-.42H5.71v-1.8c0-6.3,2-10.2,5-13.08A14,14,0,0,1,20.89,2.5c3.54,0,6.18,1.44,6.18,4.2,0,1.86-1.92,3-3.3,3a4.18,4.18,0,0,1-4-2.28c-.72-1.2-1.56-1.8-2.16-1.8-1.2,0-2,.36-3,1.92s-.66,5.94-.66,11.46v2.52h7c.42,0,.48.36.42.6L21,24.4c-.06.24-.3.3-.78.3Z"/>
    <path class="cls-1" d="M25,43.18c-2.28-2.52-3.18-5.7-3.18-9.48a13.56,13.56,0,0,1,5.16-10,13.9,13.9,0,0,1,8.94-3.06,13,13,0,0,1,9.66,3.78A12.2,12.2,0,0,1,49.67,34a14,14,0,0,1-3.84,9.36,13.67,13.67,0,0,1-10.44,4.2C31,47.56,28,46.66,25,43.18Zm15.6-9.6c0-7-2.4-10.38-5-10.38a3.4,3.4,0,0,0-3.24,1.62c-1.2,1.86-2,4.44-2,9.3,0,3.48.3,5.76,1.5,8.34a3.87,3.87,0,0,0,4,2.58C39.05,45,40.55,40.18,40.55,33.58Z"/>
    <path class="cls-1" d="M64.12,42.16c0,1.86.6,2.46,1.86,2.46h2.46c.36,0,.42.18.42.54v1.2c0,.36-.06.54-.3.54s-3.12-.18-8.52-.18c-4.62,0-7.14.18-7.5.18s-.36-.12-.36-.6V45.16c0-.42.12-.54.66-.54h1.74a1.38,1.38,0,0,0,1.56-1.44c.12-1.68.12-3.78.12-6.78v-5c0-2.58-.6-3.66-2.4-4.68l-1-.6c-.36-.18-.48-.3-.48-.54v-.54c0-.24.12-.36.48-.48l8.4-3.66a2.82,2.82,0,0,1,1-.24.77.77,0,0,1,.72.72l.54,4.68h.42c1.86-4,4.5-5.76,7.14-5.76A3.21,3.21,0,0,1,74.2,23.8c0,1.62-1.86,3.42-3.84,3.42a4,4,0,0,1-2.16-.54,2.85,2.85,0,0,0-1.5-.42,1.68,1.68,0,0,0-1.56,1.08,8.48,8.48,0,0,0-1,3.54Z"/>
    <path class="cls-1" d="M78.08,12.22c0-2-.24-3.42-3.24-4.32-.6-.18-.84-.42-.84-.6V6.22c0-.24.18-.48.78-.6a70.24,70.24,0,0,0,8.7-2.34,6.35,6.35,0,0,1,2.34-.78c.48,0,.6.3.54,1-.24,2.88-.24,11.7-.3,19.74L86,32a2.81,2.81,0,0,0,2-.9c2.52-2.34,5.34-5.52,5.34-6.42,0-.72-.78-1.08-1.38-1.08-.42,0-.48-.18-.48-.54V21.82c0-.3.12-.48.42-.48s2.52.18,6.42.18c3.6,0,5.1-.18,5.52-.18q.36,0,.36.54v1.26c0,.36-.12.48-.36.48h-.72a10,10,0,0,0-3.42,1c-1.86.84-6.42,4.86-7.68,6.12,2.22,2.64,9.42,11.64,11.16,13a6,6,0,0,0,3.18.9c.36,0,.48.12.48.54v1.2c0,.36-.12.54-.54.54s-2.16-.18-7.08-.18c-3.54,0-6.06.18-6.54.18-.3,0-.42-.18-.42-.72v-1c0-.3.12-.48.36-.48H93c.48,0,.6-.3.6-.72,0-.6-4.68-6.9-6.42-9.18a1.64,1.64,0,0,0-1.32-.72v8.94c0,1.14.54,1.56,1.14,1.56h1.14c.42,0,.54.12.54.48v1.26c0,.36-.12.54-.48.54s-2.34-.18-6.18-.18c-4.2,0-6.3.18-6.72.18-.18,0-.3-.24-.3-.6V45.16c0-.42.18-.54.6-.54h1.14a1.36,1.36,0,0,0,1.32-1.44Z"/>
    <path class="cls-1" d="M110.16,61.18a5,5,0,0,1-2.94-4.68c0-3,3.36-5.16,6.18-6.3v-.3c-2.76-.84-4.14-2.7-4.14-4.8,0-3.48,3.36-5.4,5.34-6.36v-.18a9.8,9.8,0,0,1-5.28-9.12c0-3.9,3.12-8.76,11.64-8.76A11.09,11.09,0,0,1,129.42,24a9.41,9.41,0,0,1,5.28-2.1c2.16,0,3.3,1.2,3.3,3.12a2.69,2.69,0,0,1-2.64,2.58,1.92,1.92,0,0,1-1.86-1,2.15,2.15,0,0,0-1.68-.9,2,2,0,0,0-1.14.54,8.68,8.68,0,0,1,.72,3.9,8.57,8.57,0,0,1-2.7,6.48,12.23,12.23,0,0,1-8.1,2.88,25.38,25.38,0,0,1-3.54-.18c-.78.48-2.22,1.56-2.22,2.76,0,2.1,1.74,2.28,8.22,2.1,4.08-.12,7.14.12,10.08,2.4a7.41,7.41,0,0,1,2.94,6.06c0,2.52-1.14,4.68-3.48,6.66-2.22,1.8-6.78,3.72-12.84,3.72C116.88,63,112.5,62.56,110.16,61.18Zm19.5-5.58c0-3.3-2.34-5.1-7.8-4.86l-5.22.24a4.27,4.27,0,0,0-3,4.08,5.18,5.18,0,0,0,2.1,4.08c1.68,1.2,3.36,1.56,6.06,1.56C125.76,60.7,129.66,58.6,129.66,55.6ZM117.72,24.88c-.84,1.2-1.2,4-1.2,6.66a7.76,7.76,0,0,0,1.32,4.56,3.24,3.24,0,0,0,2.76,1.2c2.64,0,3.54-4,3.54-8.64a9.69,9.69,0,0,0-.54-4A2.88,2.88,0,0,0,120.66,23C119.34,23,118.56,23.68,117.72,24.88Z"/>
    <path class="cls-1" d="M153.6,27.58c0-1.2-.12-2.58-.9-3.3a3.81,3.81,0,0,0-2.52-.72,5.45,5.45,0,0,0-3.18,1c-.9.6-.18,1.62-.18,3.54s-1.5,3.42-3.9,3.42a2.34,2.34,0,0,1-2.58-2.16,5.65,5.65,0,0,1,1.68-4.2,17.56,17.56,0,0,1,11.52-4.44c3.84,0,4.86.6,6.12,1.74s1.68,2.94,1.68,5.1l.11,11.94c.07,3.12.25,4.08,1.39,4.08a2.2,2.2,0,0,0,1.74-1.08c.24-.36.41-.42.6-.3l.84.48c.23.12.42.3.18.84a6.63,6.63,0,0,1-6.06,4.08,5.62,5.62,0,0,1-5.7-3.66h-.3A13.94,13.94,0,0,1,149,47a13.06,13.06,0,0,1-4.32.54c-2.1,0-4-2.28-4-5.52,0-2.64,1.26-5.4,5.16-7.32,4.68-2.22,6.18-2.88,7.74-4Zm.06,5.58c-2.94,1.68-5.4,2.58-5.4,6.72,0,2.76,1.26,3.9,2.58,4a3.31,3.31,0,0,0,2.82-2.16Z"/>
    <path class="cls-1" d="M187.21,27.52c.06.3,0,.42-.24.54l-1.08.48c-.18.12-.36.06-.6-.18l-3.36-3.6A5.1,5.1,0,0,0,178.21,23a3.33,3.33,0,0,0-3.54,3.24c.12,2.1.84,2.7,5.28,3.9,2.94.78,4.38,1.2,6.18,3.12a6.31,6.31,0,0,1,1.92,5.1c0,5.34-4.2,9.18-10.74,9.18a14.33,14.33,0,0,1-7-1.74,1.07,1.07,0,0,1-.36-.78l-.78-5.76a.46.46,0,0,1,.42-.48l1.08-.3c.18-.06.3,0,.42.24l2.4,3.54c1.08,1.56,2.46,3.06,5.22,3.06a3.4,3.4,0,0,0,3.54-3.66c0-2.4-1.74-3.18-5.64-4.38-4.26-1.26-7.32-3.3-7.32-7.62a7.87,7.87,0,0,1,3.12-6.84,9.8,9.8,0,0,1,6.6-2.16,13.84,13.84,0,0,1,6.3,1.26c.9.42,1,.72,1.08,1.14Z"/>
    <path class="cls-1" d="M199.5,21.1a3.57,3.57,0,0,1,1.38-.42.83.83,0,0,1,.84.78l.48,3.42h.3a10.46,10.46,0,0,1,8.52-4.2c3.84,0,5.7,1.74,7.26,4.2h.3a10.83,10.83,0,0,1,8-4c2.7,0,4,.36,5.82,2.28,1.74,1.74,2.58,2.28,2.58,8.22v4.32c0,2-.18,5.34-.24,6.6-.06,1.68.78,2.34,1.74,2.34h1.2c.54,0,.66.12.66.54V46.3c0,.42-.12.6-.42.6s-2.1-.18-6.48-.18c-3.6,0-5.76.18-6.18.18s-.48-.18-.48-.72v-1c0-.42.18-.54.36-.54h.54a1.21,1.21,0,0,0,1.2-1.14c.12-1.38.3-3.54.3-5.76V32c0-3.72-.18-5-1-5.82a3.31,3.31,0,0,0-2.94-1.44c-1.68,0-2.88,1.26-3.6,1.92-.9,1-.9,2.94-.9,3.78V42.28c0,1.74.36,2.34,1,2.34h1.08c.54,0,.66.12.66.54v1.08c0,.48-.12.66-.42.66s-2-.18-5.64-.18c-4.44,0-6.48.18-6.84.18s-.42-.18-.42-.6V45.22c0-.48.06-.6.6-.6h.84c.84,0,1.44-.78,1.44-4.26V31.48c0-4.14-.6-5.52-1.32-6.18a4,4,0,0,0-2.82-.72,4.46,4.46,0,0,0-3.3,1.86c-.78,1.2-1,2.58-1,4.86V41c0,3.06.6,3.66,1.26,3.66h.54c.54,0,.6.12.6.54v1.08c0,.42-.06.66-.48.66s-2.16-.18-6.42-.18c-4,0-5.94.18-6.42.18s-.48-.12-.48-.54v-1.2c0-.48.06-.54.72-.54h1.68c.6,0,1.08-.66,1.14-1.5.06-1,.06-2.52.06-4.08V31.48c0-2.64-.42-3.6-1.92-4.5l-1.2-.72c-.3-.18-.42-.3-.42-.48v-.72a.64.64,0,0,1,.36-.54Z"/>
  </g>
  <g>
    <path class="cls-2" d="M8,69v9.32h5.57v2.11H5.5V69Z"/>
    <path class="cls-2" d="M16.77,78.49a2,2,0,0,0,1.48.49,2,2,0,0,0,1.18-.34,1.45,1.45,0,0,0,.61-.73h2A3.82,3.82,0,0,1,20.57,80a4.36,4.36,0,0,1-2.41.64,4.92,4.92,0,0,1-1.76-.31,3.71,3.71,0,0,1-1.32-.89,4,4,0,0,1-.85-1.38,5.2,5.2,0,0,1-.29-1.76,4.91,4.91,0,0,1,.3-1.73,4.1,4.1,0,0,1,.87-1.38,4,4,0,0,1,1.33-.92A4.23,4.23,0,0,1,18.16,72a4,4,0,0,1,1.85.41,3.59,3.59,0,0,1,1.28,1.1A4.44,4.44,0,0,1,22,75.05a5.6,5.6,0,0,1,.16,1.84h-6A2.3,2.3,0,0,0,16.77,78.49Zm2.57-4.36a1.58,1.58,0,0,0-1.24-.45,2,2,0,0,0-.9.19,1.67,1.67,0,0,0-.58.45,1.69,1.69,0,0,0-.3.58,2.59,2.59,0,0,0-.11.54h3.7A2.7,2.7,0,0,0,19.34,74.13Z"/>
    <path class="cls-2" d="M23,74.74a2.68,2.68,0,0,1,.4-1.33,2.81,2.81,0,0,1,.9-.85,4,4,0,0,1,1.22-.45A7.08,7.08,0,0,1,26.86,72a9.15,9.15,0,0,1,1.27.09,3.91,3.91,0,0,1,1.16.34,2.26,2.26,0,0,1,.87.72,2,2,0,0,1,.33,1.2v4.31a9.16,9.16,0,0,0,.07,1.07,2,2,0,0,0,.22.77h-2.3c0-.13-.08-.26-.11-.39s0-.27-.05-.41a3.06,3.06,0,0,1-1.28.79,5.51,5.51,0,0,1-1.51.22,4.3,4.3,0,0,1-1.1-.14,2.72,2.72,0,0,1-.9-.45,2.29,2.29,0,0,1-.6-.77,2.68,2.68,0,0,1-.21-1.11A2.49,2.49,0,0,1,23,77.05a2.13,2.13,0,0,1,.64-.72,2.65,2.65,0,0,1,.9-.41,8.81,8.81,0,0,1,1-.22c.34,0,.67-.1,1-.13a6.42,6.42,0,0,0,.89-.14,1.52,1.52,0,0,0,.6-.28.61.61,0,0,0,.21-.54A1.19,1.19,0,0,0,28.1,74a.88.88,0,0,0-.32-.34,1.32,1.32,0,0,0-.46-.16,5.1,5.1,0,0,0-.57,0,1.76,1.76,0,0,0-1.06.29,1.33,1.33,0,0,0-.45,1Zm5.25,1.68a.89.89,0,0,1-.36.2,3.09,3.09,0,0,1-.46.12l-.52.08-.55.08a4.07,4.07,0,0,0-.5.13,1.34,1.34,0,0,0-.43.22.89.89,0,0,0-.3.34,1.16,1.16,0,0,0-.11.53,1.13,1.13,0,0,0,.11.51.87.87,0,0,0,.3.33,1.5,1.5,0,0,0,.45.17,3.08,3.08,0,0,0,.53,0,2,2,0,0,0,1-.22,1.5,1.5,0,0,0,.55-.54,1.8,1.8,0,0,0,.21-.63,3.64,3.64,0,0,0,0-.51Z"/>
    <path class="cls-2" d="M40.84,80.34a4.24,4.24,0,0,1-1.75.34,4.94,4.94,0,0,1-1.45-.22,3.38,3.38,0,0,1-1.17-.67,3,3,0,0,1-.79-1.07,3.51,3.51,0,0,1-.29-1.45,2.82,2.82,0,0,1,.21-1.11,3.18,3.18,0,0,1,.57-.91,4.08,4.08,0,0,1,.82-.73A6.66,6.66,0,0,1,38,74a8,8,0,0,1-.77-1.12,2.66,2.66,0,0,1-.31-1.32,2.37,2.37,0,0,1,.24-1.07,2.66,2.66,0,0,1,.67-.82,3,3,0,0,1,.95-.53,3.5,3.5,0,0,1,1.11-.19,4.06,4.06,0,0,1,1.23.18,2.92,2.92,0,0,1,1,.52,2.47,2.47,0,0,1,.67.86A2.59,2.59,0,0,1,43,71.65a2.54,2.54,0,0,1-.58,1.7A5,5,0,0,1,41,74.5l1.47,1.81a2.77,2.77,0,0,0,.27-.67,5.29,5.29,0,0,0,.15-.69h2a5.88,5.88,0,0,1-.35,1.49,5,5,0,0,1-.75,1.33L46,80.47H43.24l-.93-1.13A4.92,4.92,0,0,1,40.84,80.34Zm-2.28-4.61a2.59,2.59,0,0,0-.51.42,2.07,2.07,0,0,0-.36.53,1.47,1.47,0,0,0-.14.64,1.3,1.3,0,0,0,.14.58,1.44,1.44,0,0,0,.36.48,1.73,1.73,0,0,0,1.14.44,2,2,0,0,0,1.06-.28,3.84,3.84,0,0,0,.86-.73l-2-2.38A4.68,4.68,0,0,0,38.56,75.73Zm2.12-5a1,1,0,0,0-.73-.32,1.09,1.09,0,0,0-.72.28,1,1,0,0,0-.3.73,1.49,1.49,0,0,0,.29.93c.19.26.39.52.61.79a5.13,5.13,0,0,0,.82-.66,1.33,1.33,0,0,0,.35-1A1.07,1.07,0,0,0,40.68,70.75Z"/>
    <path class="cls-2" d="M57.77,72.09a2.4,2.4,0,0,0-.56-.63,2.56,2.56,0,0,0-.76-.42,2.42,2.42,0,0,0-.89-.16,3,3,0,0,0-1.44.33,2.79,2.79,0,0,0-1,.88,4.21,4.21,0,0,0-.54,1.26,6.32,6.32,0,0,0-.16,1.45,6,6,0,0,0,.16,1.41,4.09,4.09,0,0,0,.54,1.22,2.87,2.87,0,0,0,1,.87,3,3,0,0,0,1.44.33,2.31,2.31,0,0,0,1.8-.7,3.24,3.24,0,0,0,.8-1.86h2.43a6,6,0,0,1-.5,1.94,4.46,4.46,0,0,1-2.59,2.4,5.72,5.72,0,0,1-1.94.32,6,6,0,0,1-2.36-.46A4.93,4.93,0,0,1,51.43,79a5.42,5.42,0,0,1-1.1-1.88,6.78,6.78,0,0,1-.39-2.33,7,7,0,0,1,.39-2.37,5.7,5.7,0,0,1,1.1-1.92,5.1,5.1,0,0,1,1.77-1.28,6,6,0,0,1,2.36-.46,5.83,5.83,0,0,1,1.79.27,4.89,4.89,0,0,1,1.5.79A4.44,4.44,0,0,1,60,71.12a4.54,4.54,0,0,1,.54,1.76H58.06A2,2,0,0,0,57.77,72.09Z"/>
    <path class="cls-2" d="M63.88,69v4.31h0a2.64,2.64,0,0,1,1.1-1A3,3,0,0,1,66.34,72a3.79,3.79,0,0,1,1.5.25,2.18,2.18,0,0,1,.92.69A2.55,2.55,0,0,1,69.23,74a6.7,6.7,0,0,1,.14,1.4v5.09H67.1V75.8a2.91,2.91,0,0,0-.32-1.53,1.25,1.25,0,0,0-1.14-.51,1.55,1.55,0,0,0-1.34.56,3,3,0,0,0-.42,1.81v4.34H61.61V69Z"/>
    <path class="cls-2" d="M72.89,72.2v1.53h0a3.06,3.06,0,0,1,.43-.71,2.74,2.74,0,0,1,.62-.56,3.53,3.53,0,0,1,.76-.36,2.53,2.53,0,0,1,.83-.13,2,2,0,0,1,.5.08v2.11l-.39,0-.43,0a2.41,2.41,0,0,0-1.06.21,1.84,1.84,0,0,0-.69.57,2.15,2.15,0,0,0-.38.84,4.88,4.88,0,0,0-.11,1v3.73H70.73V72.2Z"/>
    <path class="cls-2" d="M76.65,70.92V69h2.28v1.88Zm2.28,1.28v8.27H76.65V72.2Z"/>
    <path class="cls-2" d="M82.24,78.41a1.38,1.38,0,0,0,.39.44,1.67,1.67,0,0,0,.56.24,2.32,2.32,0,0,0,.65.08,2.29,2.29,0,0,0,.5,0,1.71,1.71,0,0,0,.48-.18,1.1,1.1,0,0,0,.36-.32.8.8,0,0,0,.14-.5c0-.34-.22-.6-.68-.77a13.4,13.4,0,0,0-1.89-.51c-.33-.08-.66-.17-1-.27a3,3,0,0,1-.84-.4,1.75,1.75,0,0,1-.59-.62,1.77,1.77,0,0,1-.23-.92,2.56,2.56,0,0,1,.31-1.31,2.3,2.3,0,0,1,.83-.81,3.5,3.5,0,0,1,1.15-.42A7.09,7.09,0,0,1,83.72,72,6.26,6.26,0,0,1,85,72.1a3.64,3.64,0,0,1,1.13.43,2.54,2.54,0,0,1,.82.81,2.68,2.68,0,0,1,.39,1.27H85.21a1,1,0,0,0-.49-.89,2.36,2.36,0,0,0-1.06-.23l-.42,0a1.37,1.37,0,0,0-.41.1.87.87,0,0,0-.31.23.65.65,0,0,0-.13.41.64.64,0,0,0,.23.5,1.86,1.86,0,0,0,.58.31c.24.08.52.15.83.22l.94.2a9.89,9.89,0,0,1,1,.28,3,3,0,0,1,.84.42,2,2,0,0,1,.59.66,1.89,1.89,0,0,1,.23,1,2.52,2.52,0,0,1-1.19,2.26,3.33,3.33,0,0,1-1.21.47,7,7,0,0,1-1.38.14,7.33,7.33,0,0,1-1.41-.14,3.8,3.8,0,0,1-1.22-.48,2.67,2.67,0,0,1-.88-.89,2.78,2.78,0,0,1-.38-1.39h2.16A1.22,1.22,0,0,0,82.24,78.41Z"/>
    <path class="cls-2" d="M90.76,69v2.45a2.7,2.7,0,0,1-.15,1,2.4,2.4,0,0,1-.48.82,2.55,2.55,0,0,1-.72.58,2.49,2.49,0,0,1-.92.3V73.12a1.4,1.4,0,0,0,.83-.61,2.05,2.05,0,0,0,.22-1H88.49V69Z"/>
    <path class="cls-2" d="M100.16,73.68a1.66,1.66,0,0,0-.92.25,2.16,2.16,0,0,0-.6.64,2.74,2.74,0,0,0-.32.87,4.33,4.33,0,0,0,0,1.85,2.56,2.56,0,0,0,.31.84,1.78,1.78,0,0,0,.58.61,1.63,1.63,0,0,0,.9.24,1.66,1.66,0,0,0,1.25-.45,2.2,2.2,0,0,0,.56-1.23h2.19a3.75,3.75,0,0,1-1.28,2.51,4.12,4.12,0,0,1-2.71.87,4.67,4.67,0,0,1-1.7-.31,3.8,3.8,0,0,1-1.32-.87,4,4,0,0,1-.85-1.34,4.73,4.73,0,0,1-.3-1.71,5.4,5.4,0,0,1,.28-1.78,4,4,0,0,1,.82-1.43,3.71,3.71,0,0,1,1.33-.93,4.4,4.4,0,0,1,1.79-.34,5.53,5.53,0,0,1,1.42.19,4,4,0,0,1,1.22.59,3.37,3.37,0,0,1,.87,1,3.18,3.18,0,0,1,.38,1.39h-2.22A1.53,1.53,0,0,0,100.16,73.68Z"/>
    <path class="cls-2" d="M110.57,80.47V79.32h0a2.54,2.54,0,0,1-1.12,1,3.37,3.37,0,0,1-1.41.32,4,4,0,0,1-1.5-.24,2.22,2.22,0,0,1-.92-.68,2.68,2.68,0,0,1-.47-1.07,6.7,6.7,0,0,1-.14-1.4V72.2h2.28v4.67a2.86,2.86,0,0,0,.32,1.53,1.24,1.24,0,0,0,1.13.5,1.58,1.58,0,0,0,1.35-.55,3.06,3.06,0,0,0,.41-1.82V72.2h2.28v8.27Z"/>
    <path class="cls-2" d="M116.4,69V80.47h-2.27V69Z"/>
    <path class="cls-2" d="M117.82,70.92V69h2.27v1.88Zm2.27,1.28v8.27h-2.27V72.2Z"/>
    <path class="cls-2" d="M123.65,72.2v1.15h0a2.68,2.68,0,0,1,1.12-1,3.24,3.24,0,0,1,1.41-.33,3.79,3.79,0,0,1,1.5.25,2.18,2.18,0,0,1,.92.69,2.68,2.68,0,0,1,.47,1.07,6.7,6.7,0,0,1,.14,1.4v5.09H127V75.8a2.91,2.91,0,0,0-.32-1.53,1.25,1.25,0,0,0-1.14-.51,1.59,1.59,0,0,0-1.35.56,3.1,3.1,0,0,0-.41,1.81v4.34h-2.27V72.2Z"/>
    <path class="cls-2" d="M130.49,74.74a2.68,2.68,0,0,1,.4-1.33,2.92,2.92,0,0,1,.9-.85,4,4,0,0,1,1.22-.45,7.08,7.08,0,0,1,1.37-.14,9.15,9.15,0,0,1,1.27.09,3.91,3.91,0,0,1,1.16.34,2.26,2.26,0,0,1,.87.72,2,2,0,0,1,.34,1.2v4.31a9.2,9.2,0,0,0,.06,1.07,2,2,0,0,0,.22.77H136c0-.13-.08-.26-.11-.39s0-.27,0-.41a3,3,0,0,1-1.28.79,5.46,5.46,0,0,1-1.51.22,4.3,4.3,0,0,1-1.1-.14,2.72,2.72,0,0,1-.9-.45,2.29,2.29,0,0,1-.6-.77,2.68,2.68,0,0,1-.21-1.11,2.49,2.49,0,0,1,.24-1.16,2.13,2.13,0,0,1,.64-.72,2.74,2.74,0,0,1,.9-.41,9.29,9.29,0,0,1,1-.22c.34,0,.67-.1,1-.13a6.42,6.42,0,0,0,.89-.14,1.52,1.52,0,0,0,.6-.28.61.61,0,0,0,.21-.54,1.19,1.19,0,0,0-.12-.58.81.81,0,0,0-.32-.34,1.32,1.32,0,0,0-.46-.16,5.1,5.1,0,0,0-.57,0,1.76,1.76,0,0,0-1.06.29,1.29,1.29,0,0,0-.44,1Zm5.25,1.68a.89.89,0,0,1-.36.2,3.09,3.09,0,0,1-.46.12l-.52.08-.55.08a4.07,4.07,0,0,0-.5.13,1.34,1.34,0,0,0-.43.22,1,1,0,0,0-.3.34,1.16,1.16,0,0,0-.11.53,1.13,1.13,0,0,0,.11.51.9.9,0,0,0,.31.33,1.35,1.35,0,0,0,.44.17,3.08,3.08,0,0,0,.53,0,2,2,0,0,0,1-.22,1.5,1.5,0,0,0,.55-.54,1.62,1.62,0,0,0,.21-.63,3.64,3.64,0,0,0,0-.51Z"/>
    <path class="cls-2" d="M141.56,72.2v1.53h0A3.06,3.06,0,0,1,142,73a2.78,2.78,0,0,1,.63-.56,3.24,3.24,0,0,1,.75-.36,2.62,2.62,0,0,1,.83-.13,1.92,1.92,0,0,1,.5.08v2.11l-.38,0-.44,0a2.37,2.37,0,0,0-1,.21,1.87,1.87,0,0,0-.7.57,2.48,2.48,0,0,0-.38.84,4.88,4.88,0,0,0-.11,1v3.73H139.4V72.2Z"/>
    <path class="cls-2" d="M148.83,82.94a3.39,3.39,0,0,1-1.83.43q-.34,0-.69,0l-.7,0V81.42l.66.06a5,5,0,0,0,.67,0,.87.87,0,0,0,.66-.36,1.08,1.08,0,0,0,.22-.67,1.25,1.25,0,0,0-.1-.51l-2.89-7.76h2.41l1.88,5.66h0L151,72.2h2.35l-3.46,9.3A2.82,2.82,0,0,1,148.83,82.94Z"/>
    <path class="cls-2" d="M157.47,74.74a2.68,2.68,0,0,1,.4-1.33,2.81,2.81,0,0,1,.9-.85,4,4,0,0,1,1.22-.45,7.08,7.08,0,0,1,1.37-.14,9.15,9.15,0,0,1,1.27.09,3.91,3.91,0,0,1,1.16.34,2.26,2.26,0,0,1,.87.72,2,2,0,0,1,.33,1.2v4.31a9.16,9.16,0,0,0,.07,1.07,2,2,0,0,0,.22.77H163c0-.13-.08-.26-.11-.39s0-.27-.05-.41a3.06,3.06,0,0,1-1.28.79,5.51,5.51,0,0,1-1.51.22,4.3,4.3,0,0,1-1.1-.14,2.72,2.72,0,0,1-.9-.45,2.29,2.29,0,0,1-.6-.77,2.68,2.68,0,0,1-.21-1.11,2.49,2.49,0,0,1,.24-1.16,2.13,2.13,0,0,1,.64-.72,2.65,2.65,0,0,1,.9-.41,8.81,8.81,0,0,1,1-.22c.34,0,.67-.1,1-.13a6.42,6.42,0,0,0,.89-.14,1.52,1.52,0,0,0,.6-.28.61.61,0,0,0,.21-.54,1.19,1.19,0,0,0-.12-.58.81.81,0,0,0-.32-.34,1.32,1.32,0,0,0-.46-.16,5.1,5.1,0,0,0-.57,0,1.76,1.76,0,0,0-1.06.29,1.33,1.33,0,0,0-.45,1Zm5.25,1.68a.89.89,0,0,1-.36.2,3.09,3.09,0,0,1-.46.12l-.52.08-.55.08a4.07,4.07,0,0,0-.5.13,1.34,1.34,0,0,0-.43.22.89.89,0,0,0-.3.34,1.16,1.16,0,0,0-.11.53,1.13,1.13,0,0,0,.11.51.87.87,0,0,0,.3.33,1.5,1.5,0,0,0,.45.17,3.08,3.08,0,0,0,.53,0,2,2,0,0,0,1-.22,1.5,1.5,0,0,0,.55-.54,1.8,1.8,0,0,0,.21-.63,3.64,3.64,0,0,0,0-.51Z"/>
    <path class="cls-2" d="M172.18,79.42a2.36,2.36,0,0,1-1.05,1,3.45,3.45,0,0,1-1.47.3,3.56,3.56,0,0,1-1.63-.36,3.25,3.25,0,0,1-1.16-1,4.63,4.63,0,0,1-.69-1.41,6.18,6.18,0,0,1-.23-1.67,5.8,5.8,0,0,1,.23-1.61,4.53,4.53,0,0,1,.69-1.37,3.45,3.45,0,0,1,1.15-1,3.53,3.53,0,0,1,3,0,2.53,2.53,0,0,1,1,.92h0V69h2.27V80.47h-2.16v-1Zm-.1-4.09a2.24,2.24,0,0,0-.33-.84,1.75,1.75,0,0,0-.6-.58,1.73,1.73,0,0,0-.93-.23,1.77,1.77,0,0,0-1.56.82,2.83,2.83,0,0,0-.33.84,4.55,4.55,0,0,0-.11,1,4.49,4.49,0,0,0,.11,1,2.61,2.61,0,0,0,.37.85,1.9,1.9,0,0,0,.62.61,1.63,1.63,0,0,0,.9.23,1.79,1.79,0,0,0,.94-.22,1.72,1.72,0,0,0,.6-.6,2.6,2.6,0,0,0,.32-.86,4.62,4.62,0,0,0,.1-1A4.46,4.46,0,0,0,172.08,75.33Z"/>
    <path class="cls-2" d="M177.78,80.47l-2.84-8.27h2.39l1.74,5.65h0l1.75-5.65h2.26l-2.8,8.27Z"/>
    <path class="cls-2" d="M185.82,78.49a2.36,2.36,0,0,0,2.66.15,1.45,1.45,0,0,0,.61-.73h2A3.82,3.82,0,0,1,189.62,80a4.36,4.36,0,0,1-2.41.64,4.92,4.92,0,0,1-1.76-.31,3.84,3.84,0,0,1-1.33-.89,4.09,4.09,0,0,1-.84-1.38,5.2,5.2,0,0,1-.29-1.76,4.91,4.91,0,0,1,.3-1.73,4.1,4.1,0,0,1,.87-1.38,4,4,0,0,1,1.33-.92,4.19,4.19,0,0,1,1.72-.34,3.93,3.93,0,0,1,1.84.41,3.54,3.54,0,0,1,1.29,1.1,4.44,4.44,0,0,1,.73,1.57,5.88,5.88,0,0,1,.16,1.84h-6A2.3,2.3,0,0,0,185.82,78.49Zm2.57-4.36a1.58,1.58,0,0,0-1.24-.45,2,2,0,0,0-.9.19,1.67,1.67,0,0,0-.58.45,1.69,1.69,0,0,0-.3.58,2.59,2.59,0,0,0-.11.54H189A2.7,2.7,0,0,0,188.39,74.13Z"/>
    <path class="cls-2" d="M194.35,72.2v1.15h.05a2.62,2.62,0,0,1,1.12-1,3.24,3.24,0,0,1,1.41-.33,3.79,3.79,0,0,1,1.5.25,2.24,2.24,0,0,1,.92.69,2.68,2.68,0,0,1,.47,1.07,6.73,6.73,0,0,1,.13,1.4v5.09h-2.27V75.8a2.91,2.91,0,0,0-.32-1.53,1.22,1.22,0,0,0-1.13-.51,1.59,1.59,0,0,0-1.35.56,3,3,0,0,0-.42,1.81v4.34h-2.27V72.2Z"/>
    <path class="cls-2" d="M205.79,72.2v1.52h-1.67v4.09a1.16,1.16,0,0,0,.19.77,1.12,1.12,0,0,0,.77.19h.37l.34-.05v1.76a6,6,0,0,1-.64.07h-.69a6.36,6.36,0,0,1-1-.07,2.45,2.45,0,0,1-.84-.28,1.45,1.45,0,0,1-.56-.59,2.13,2.13,0,0,1-.21-1V73.72h-1.38V72.2h1.38V69.71h2.27V72.2Z"/>
    <path class="cls-2" d="M212.05,80.47V79.32H212a2.54,2.54,0,0,1-1.12,1,3.37,3.37,0,0,1-1.41.32,4,4,0,0,1-1.5-.24,2.22,2.22,0,0,1-.92-.68,2.68,2.68,0,0,1-.47-1.07,6.7,6.7,0,0,1-.14-1.4V72.2h2.28v4.67A2.86,2.86,0,0,0,209,78.4a1.25,1.25,0,0,0,1.14.5,1.57,1.57,0,0,0,1.34-.55,3,3,0,0,0,.42-1.82V72.2h2.27v8.27Z"/>
    <path class="cls-2" d="M217.74,72.2v1.53h0a3.06,3.06,0,0,1,.43-.71,2.59,2.59,0,0,1,.63-.56,3.24,3.24,0,0,1,.75-.36,2.57,2.57,0,0,1,.83-.13,1.92,1.92,0,0,1,.5.08v2.11l-.39,0-.43,0a2.44,2.44,0,0,0-1.06.21,1.84,1.84,0,0,0-.69.57,2.31,2.31,0,0,0-.38.84,4.88,4.88,0,0,0-.11,1v3.73h-2.27V72.2Z"/>
    <path class="cls-2" d="M223.91,78.49a2.05,2.05,0,0,0,1.48.49,2,2,0,0,0,1.18-.34,1.45,1.45,0,0,0,.61-.73h2A3.82,3.82,0,0,1,227.71,80a4.32,4.32,0,0,1-2.4.64,4.88,4.88,0,0,1-1.76-.31,3.66,3.66,0,0,1-1.33-.89,3.8,3.8,0,0,1-.84-1.38,5.22,5.22,0,0,1,0-3.49,4.1,4.1,0,0,1,.87-1.38,4,4,0,0,1,1.34-.92,4.16,4.16,0,0,1,1.72-.34,4,4,0,0,1,1.84.41,3.71,3.71,0,0,1,1.29,1.1,4.6,4.6,0,0,1,.72,1.57,5.6,5.6,0,0,1,.16,1.84h-6A2.35,2.35,0,0,0,223.91,78.49Zm2.57-4.36a1.58,1.58,0,0,0-1.24-.45,2,2,0,0,0-.9.19,1.77,1.77,0,0,0-.58.45,1.89,1.89,0,0,0-.3.58,2.59,2.59,0,0,0-.11.54h3.7A2.7,2.7,0,0,0,226.48,74.13Z"/>
    <path class="cls-2" d="M232.15,78.41a1.38,1.38,0,0,0,.39.44,1.61,1.61,0,0,0,.55.24,2.32,2.32,0,0,0,.65.08,2.18,2.18,0,0,0,.5,0,1.71,1.71,0,0,0,.48-.18.93.93,0,0,0,.36-.32.8.8,0,0,0,.15-.5c0-.34-.23-.6-.68-.77a14,14,0,0,0-1.9-.51c-.33-.08-.65-.17-1-.27a3.26,3.26,0,0,1-.84-.4,1.94,1.94,0,0,1-.59-.62,1.77,1.77,0,0,1-.23-.92,2.47,2.47,0,0,1,.32-1.31,2.2,2.2,0,0,1,.82-.81,3.59,3.59,0,0,1,1.15-.42,7.2,7.2,0,0,1,1.32-.12,6.23,6.23,0,0,1,1.3.13,3.64,3.64,0,0,1,1.13.43,2.44,2.44,0,0,1,.82.81,2.8,2.8,0,0,1,.4,1.27h-2.16a1,1,0,0,0-.5-.89,2.33,2.33,0,0,0-1.06-.23l-.41,0a1.3,1.3,0,0,0-.41.1.72.72,0,0,0-.31.23.59.59,0,0,0-.13.41.63.63,0,0,0,.22.5,1.92,1.92,0,0,0,.59.31c.24.08.51.15.82.22l.94.2a9.15,9.15,0,0,1,1,.28,2.76,2.76,0,0,1,.84.42,2,2,0,0,1,.6.66,1.89,1.89,0,0,1,.22,1,2.62,2.62,0,0,1-.33,1.37,2.59,2.59,0,0,1-.85.89,3.47,3.47,0,0,1-1.21.47,7.2,7.2,0,0,1-1.39.14,7.33,7.33,0,0,1-1.41-.14,3.89,3.89,0,0,1-1.22-.48,2.65,2.65,0,0,1-1.26-2.28H232A1.14,1.14,0,0,0,232.15,78.41Z"/>
  </g>
  <line class="cls-3" x1="1.16" y1="58.66" x2="100.18" y2="58.66"/>
  <line class="cls-3" x1="142.68" y1="58.66" x2="238.91" y2="58.66"/>
</svg>
