<?xml version="1.0" encoding="utf-8"?>
<!-- Generator: Adobe Illustrator 21.1.0, SVG Export Plug-In . SVG Version: 6.00 Build 0)  -->
<svg version="1.1" id="Layer_1" xmlns="http://www.w3.org/2000/svg" xmlns:xlink="http://www.w3.org/1999/xlink" x="0px" y="0px"
	 viewBox="0 0 229.9 60.5" style="enable-background:new 0 0 229.9 60.5;" xml:space="preserve">
<style type="text/css">
	.st0{display:none;fill:#FF6700;}
	.st1{fill:#FFFFFF;}
	.st2{fill:#997D6E;enable-background:new    ;}
	.st3{enable-background:new    ;}
	.st4{fill:#40060E;}
	.st5{clip-path:url(#SVGID_2_);fill:#DD505A;}
</style>
<rect x="-162.2" y="-276" class="st0" width="562" height="434"/>
<g>
	<path class="st1" d="M12.4,22.2v5.2c0,2.9-0.2,10.5-0.1,12.8c0.1,1.3,0.8,1.9,1.7,1.9h2.2c0.5,0,0.7,0.1,0.7,0.5v1.2
		c0,0.4-0.1,0.6-0.4,0.6c-0.4,0-2.6-0.2-8.4-0.2c-3.9,0-7,0.2-7.4,0.2c-0.4,0-0.5-0.1-0.5-0.5v-1.3c0-0.3,0.1-0.4,0.6-0.4h2
		c1.1,0,1.6-0.7,1.6-2L4.2,22.2H0.4c-0.3,0-0.4-0.1-0.4-0.7l0.3-2.1C0.4,19.1,0.6,19,1,19h3.2v-1.8c0-6.3,2-10.2,5-13.1
		c3.2-3,6.4-4.1,10.1-4.1c3.5,0,6.2,1.4,6.2,4.2c0,1.9-1.9,3-3.3,3c-1.9,0-3.1-0.7-4-2.3c-0.7-1.2-1.6-1.8-2.2-1.8
		c-1.2,0-2,0.4-3,1.9C12,6.7,12.4,11,12.4,16.5V19h7c0.4,0,0.5,0.4,0.4,0.6l-0.3,2.3c-0.1,0.2-0.3,0.3-0.8,0.3H12.4z"/>
	<path class="st1" d="M22.5,40.7c-2.3-2.5-3.2-5.7-3.2-9.5c0-2.7,1.5-7.1,5.2-10c3.1-2.4,6.1-3.1,8.9-3.1c4.1,0,7,1.3,9.7,3.8
		c2.9,2.6,4.1,5.9,4.1,9.5c0,3.5-1.5,6.8-3.8,9.4c-2.9,3-6.4,4.2-10.4,4.2C28.5,45.1,25.5,44.2,22.5,40.7z M38.1,31.1
		c0-7-2.4-10.4-5-10.4c-1.5,0-2.5,0.4-3.2,1.6c-1.2,1.9-2,4.4-2,9.3c0,3.5,0.3,5.8,1.5,8.3c0.8,1.6,1.7,2.6,4,2.6
		C36.6,42.5,38.1,37.7,38.1,31.1z"/>
	<path class="st1" d="M60.6,39.7c0,1.9,0.6,2.5,1.9,2.5h2.5c0.4,0,0.4,0.2,0.4,0.5v1.2c0,0.4-0.1,0.5-0.3,0.5
		c-0.4,0-3.1-0.2-8.5-0.2c-4.6,0-7.1,0.2-7.5,0.2c-0.2,0-0.4-0.1-0.4-0.6v-1.1c0-0.4,0.1-0.5,0.7-0.5h1.7c0.9,0,1.4-0.4,1.6-1.4
		c0.1-1.7,0.1-3.8,0.1-6.8v-5c0-2.6-0.6-3.7-2.4-4.7l-1-0.6c-0.4-0.2-0.5-0.3-0.5-0.5v-0.5c0-0.2,0.1-0.4,0.5-0.5l8.4-3.7
		c0.4-0.1,0.6-0.2,1-0.2c0.4,0,0.7,0.4,0.7,0.7l0.5,4.7h0.4c1.9-4,4.5-5.8,7.1-5.8c1.8,0,3.2,1.4,3.2,3.5c0,1.6-1.9,3.4-3.8,3.4
		c-0.8,0-1.6-0.2-2.2-0.5c-0.5-0.3-1-0.4-1.5-0.4c-0.6,0-1.2,0.3-1.6,1.1c-0.8,1.6-1,2.8-1,3.5V39.7z"/>
	<path class="st1" d="M73.6,9.7c0-2-0.2-3.4-3.2-4.3c-0.6-0.2-0.8-0.4-0.8-0.6V3.7c0-0.2,0.2-0.5,0.8-0.6c3.1-0.5,7.3-1.9,8.7-2.3
		C80.1,0.2,80.8,0,81.3,0s0.6,0.3,0.5,1c-0.2,2.9-0.2,11.7-0.3,19.7l-0.1,8.8c0.7,0,1.3-0.2,2-0.9c2.5-2.3,5.3-5.5,5.3-6.4
		c0-0.7-0.8-1.1-1.4-1.1c-0.4,0-0.5-0.2-0.5-0.5v-1.3c0-0.3,0.1-0.5,0.4-0.5c0.4,0,2.5,0.2,6.4,0.2c3.6,0,5.1-0.2,5.5-0.2
		c0.2,0,0.4,0.2,0.4,0.5v1.3c0,0.4-0.1,0.5-0.4,0.5h-0.7c-0.7,0-1.9,0.4-3.4,1c-1.9,0.8-6.4,4.9-7.7,6.1c2.2,2.6,9.4,11.6,11.2,13
		c1,0.7,2.5,0.9,3.2,0.9c0.4,0,0.5,0.1,0.5,0.5v1.2c0,0.4-0.1,0.5-0.5,0.5c-0.5,0-2.2-0.2-7.1-0.2c-3.5,0-6.1,0.2-6.5,0.2
		c-0.3,0-0.4-0.2-0.4-0.7v-1c0-0.3,0.1-0.5,0.4-0.5h0.4c0.5,0,0.6-0.3,0.6-0.7c0-0.6-4.7-6.9-6.4-9.2c-0.5-0.6-1-0.7-1.3-0.7v8.9
		c0,1.1,0.5,1.6,1.1,1.6h1.1c0.4,0,0.5,0.1,0.5,0.5v1.3c0,0.4-0.1,0.5-0.5,0.5c-0.4,0-2.3-0.2-6.2-0.2c-4.2,0-6.3,0.2-6.7,0.2
		c-0.2,0-0.3-0.2-0.3-0.6v-1.1c0-0.4,0.2-0.5,0.6-0.5h1.1c0.8,0,1.3-0.7,1.3-1.4V9.7z"/>
	<path class="st1" d="M105.7,58.7c-2.2-1.3-2.9-2.8-2.9-4.7c0-3,3.4-5.2,6.2-6.3v-0.3c-2.8-0.8-4.1-2.7-4.1-4.8
		c0-3.5,3.4-5.4,5.3-6.4v-0.2c-2.6-1.5-5.3-4-5.3-9.1c0-3.9,3.1-8.8,11.6-8.8c5.3,0,7.9,2.8,8.5,3.4c1.4-1.1,3.6-2.1,5.3-2.1
		c2.2,0,3.3,1.2,3.3,3.1c0,1.4-1.3,2.6-2.6,2.6c-1,0-1.5-0.4-1.9-1c-0.3-0.5-1-0.9-1.7-0.9c-0.3,0-0.8,0.2-1.1,0.5
		c0.2,0.4,0.7,1.7,0.7,3.9c0,2.3-0.7,4.5-2.7,6.5c-2.3,2.2-5.7,2.9-8.1,2.9c-1.2,0-2,0-3.5-0.2c-0.8,0.5-2.2,1.6-2.2,2.8
		c0,2.1,1.7,2.3,8.2,2.1c4.1-0.1,7.1,0.1,10.1,2.4c2.2,1.7,2.9,3.8,2.9,6.1c0,2.5-1.1,4.7-3.5,6.7c-2.2,1.8-6.8,3.7-12.8,3.7
		C112.4,60.5,108,60.1,105.7,58.7z M125.2,53.1c0-3.3-2.3-5.1-7.8-4.9l-5.2,0.2c-1.7,0.4-3,2.3-3,4.1c0,1.7,1,3.2,2.1,4.1
		c1.7,1.2,3.4,1.6,6.1,1.6C121.3,58.2,125.2,56.1,125.2,53.1z M113.2,22.4c-0.8,1.2-1.2,4-1.2,6.7c0,1.7,0.5,3.7,1.3,4.6
		c0.7,0.8,1.6,1.2,2.8,1.2c2.6,0,3.5-4,3.5-8.6c0-2.2-0.2-3.5-0.5-4c-0.5-1-1.3-1.7-2.9-1.7C114.8,20.5,114.1,21.2,113.2,22.4z"/>
	<path class="st1" d="M148.1,25.1c0-1.2-0.1-2.6-0.9-3.3c-0.6-0.5-1.6-0.7-2.5-0.7c-1.1,0-2.1,0.2-3.2,1c-0.9,0.6-0.2,1.6-0.2,3.5
		c0,2-1.5,3.4-3.9,3.4c-1.4,0-2.6-0.8-2.6-2.2s0.4-3.1,1.7-4.2c2.5-2.3,6.7-4.4,11.5-4.4c3.8,0,4.9,0.6,6.1,1.7
		c1.3,1.2,1.7,2.9,1.7,5.1L156,37c0.1,3.1,0.2,4.1,1.4,4.1c0.8,0,1.5-0.7,1.7-1.1c0.2-0.4,0.4-0.4,0.6-0.3l0.8,0.5
		c0.2,0.1,0.4,0.3,0.2,0.8c-0.5,1.3-2.3,4.1-6.1,4.1c-2.3,0-4.6-0.8-5.7-3.7h-0.3c-1.5,1.4-2.8,2.2-5.2,3.1
		c-1.2,0.4-2.6,0.5-4.3,0.5c-2.1,0-4-2.3-4-5.5c0-2.6,1.3-5.4,5.2-7.3c4.7-2.2,6.2-2.9,7.7-4V25.1z M148.2,30.7
		c-2.9,1.7-5.4,2.6-5.4,6.7c0,2.8,1.3,3.9,2.6,4c1.6-0.1,2.8-1.6,2.8-2.2V30.7z"/>
	<path class="st1" d="M180.7,25c0.1,0.3,0,0.4-0.2,0.5l-1.1,0.5c-0.2,0.1-0.4,0.1-0.6-0.2l-3.4-3.6c-0.8-0.8-1.9-1.7-3.7-1.7
		s-3.5,1.2-3.5,3.2c0.1,2.1,0.8,2.7,5.3,3.9c2.9,0.8,4.4,1.2,6.2,3.1c1.6,1.6,1.9,3,1.9,5.1c0,5.3-4.2,9.2-10.7,9.2
		c-3.4,0-6.3-1.2-7-1.7c-0.2-0.2-0.3-0.4-0.4-0.8l-0.8-5.8c0-0.3,0.2-0.4,0.4-0.5l1.1-0.3c0.2-0.1,0.3,0,0.4,0.2l2.4,3.5
		c1.1,1.6,2.5,3.1,5.2,3.1c2.2,0,3.5-1.6,3.5-3.7c0-2.4-1.7-3.2-5.6-4.4c-4.3-1.3-7.3-3.3-7.3-7.6c0-2.8,0.8-5.2,3.1-6.8
		c2.4-1.7,4.1-2.2,6.6-2.2c3.2,0,5.2,0.7,6.3,1.3c0.9,0.4,1,0.7,1.1,1.1L180.7,25z"/>
	<path class="st1" d="M192,18.6c0.5-0.2,1-0.4,1.4-0.4c0.4,0,0.7,0.2,0.8,0.8l0.5,3.4h0.3c1.7-2.3,4.7-4.2,8.5-4.2
		c3.8,0,5.7,1.7,7.3,4.2h0.3c2-2.4,5-4,8-4c2.7,0,4,0.4,5.8,2.3c1.7,1.7,2.6,2.3,2.6,8.2v4.3c0,2-0.2,5.3-0.2,6.6
		c-0.1,1.7,0.8,2.3,1.7,2.3h1.2c0.5,0,0.7,0.1,0.7,0.5v1.1c0,0.4-0.1,0.6-0.4,0.6c-0.4,0-2.1-0.2-6.5-0.2c-3.6,0-5.8,0.2-6.2,0.2
		c-0.4,0-0.5-0.2-0.5-0.7v-1c0-0.4,0.2-0.5,0.4-0.5h0.5c0.4,0,1.1-0.3,1.2-1.1c0.1-1.4,0.3-3.5,0.3-5.8v-5.8c0-3.7-0.2-5-1-5.8
		c-1-1.1-1.6-1.4-2.9-1.4c-1.7,0-2.9,1.3-3.6,1.9c-0.9,1-0.9,2.9-0.9,3.8v11.9c0,1.7,0.4,2.3,1,2.3h1.1c0.5,0,0.7,0.1,0.7,0.5v1.1
		c0,0.5-0.1,0.7-0.4,0.7c-0.4,0-2-0.2-5.6-0.2c-4.4,0-6.5,0.2-6.8,0.2c-0.3,0-0.4-0.2-0.4-0.6v-1.1c0-0.5,0.1-0.6,0.6-0.6h0.8
		c0.8,0,1.4-0.8,1.4-4.3V29c0-4.1-0.6-5.5-1.3-6.2c-0.5-0.5-1.5-0.7-2.8-0.7c-1.2,0-2.6,0.8-3.3,1.9c-0.8,1.2-1,2.6-1,4.9v9.7
		c0,3.1,0.6,3.7,1.3,3.7h0.5c0.5,0,0.6,0.1,0.6,0.5v1.1c0,0.4-0.1,0.7-0.5,0.7c-0.5,0-2.2-0.2-6.4-0.2c-4,0-5.9,0.2-6.4,0.2
		c-0.4,0-0.5-0.1-0.5-0.5v-1.2c0-0.5,0.1-0.5,0.7-0.5h1.7c0.6,0,1.1-0.7,1.1-1.5c0.1-1,0.1-2.5,0.1-4.1V29c0-2.6-0.4-3.6-1.9-4.5
		l-1.2-0.7c-0.3-0.2-0.4-0.3-0.4-0.5v-0.7c0-0.2,0.1-0.4,0.4-0.5L192,18.6z"/>
</g>
</svg>
