<?xml version="1.0" encoding="utf-8"?>
<!-- Generator: Adobe Illustrator 24.1.0, SVG Export Plug-In . SVG Version: 6.00 Build 0)  -->
<svg version="1.1" id="Layer_1" xmlns="http://www.w3.org/2000/svg" xmlns:xlink="http://www.w3.org/1999/xlink" x="0px" y="0px"
	 viewBox="0 0 364.9 335.2" style="enable-background:new 0 0 364.9 335.2;" xml:space="preserve">
<style type="text/css">
	.st0{fill:#D3072B;}
</style>
<g id="dWuXzV_2_">
	<g>
		<path class="st0" d="M206.1,51.7c2.7-2.8,5.1-5.3,7.4-8c0.9-1,1.5-2.4,1.9-3.7c1-3.3-0.2-6-3.3-8c-3.6-2.3-7.7-3.4-11.9-3.8
			c-6.8-0.7-13.7-1.3-20.5-1.1c-7.6,0.1-15.2,0.8-22.4,3.5c-2.2,0.8-4.4,2.2-6.3,3.8c-2,1.7-2.3,4-1.3,6.5c1.4,3.6,4.1,6.1,7,8.6
			c0.4,0.3,0.8,0.7,1.5,1.2c-3.6,0.7-6.8,1.5-10.1,1.9c-19.3,2.7-37.1,9.4-52.7,21.4c-13.2,10.2-22.7,23.2-28.5,38.8
			c-3.5,9.3-5.4,19-6.2,28.9c-0.8,8.6-0.3,17.2,0.8,25.7c0.2,1.4,0.3,2.8,0.8,4.1c1,2.5-0.1,4-2,5.6c-10.8,9-20.5,19.1-27.3,31.6
			c-5.5,10-8.6,20.7-8,32.1c0.5,10.7,3.9,20.8,9,30.1c9.1,16.4,21.6,29.9,36.4,41.2c5.7,4.4,7.1,11.9,3,17.7
			c-3.9,5.6-11.9,6.9-17.6,2.7c-8.3-6-15.8-12.9-22.7-20.4c-10-10.9-18.5-22.7-24.6-36.2c-3.2-7.2-5.7-14.6-7.1-22.3
			c-1.6-8.5-2-16.9-0.9-25.4c1.9-14.7,7.4-27.9,15.7-40.1c5.3-7.9,11.6-14.9,18.4-21.6c0.7-0.7,1.2-1.9,1.2-2.9
			c0.1-7.6-0.3-15.2,0.1-22.8c0.5-10.5,2.5-20.7,5.7-30.7c6.5-20.6,17.6-38.3,34.1-52.4c11-9.5,23.5-16.5,37-21.7
			c2.4-0.9,4.8-1.6,7.1-2.6c1.1-0.5,2.2-1.3,2.8-2.3c8.8-13.8,21.3-22.7,36.8-27.6c8.6-2.7,17.4-4,26.4-3.6
			c19.2,0.8,36,7.5,49.3,21.8c2.6,2.8,4.8,6.1,6.9,9.3c0.9,1.3,1.9,2.1,3.3,2.6c14.4,4.7,27.8,11.5,39.8,20.8
			c15.8,12.3,27.3,27.8,34.8,46.3c3.4,8.4,5.8,17.1,7.3,26c2,11.8,2.7,23.7,1.7,35.6c-0.2,2.2,0.6,3.7,2.1,5.2
			c10.3,9.9,19.1,21,25.2,34c4.5,9.4,7.3,19.3,8.2,29.8c1.8,20.3-3.9,38.6-14.1,55.7c-10.6,17.9-24.6,32.8-41.2,45.3
			c-8.3,6.2-19.3,1.4-20.3-8.9c-0.4-4.5,1.4-8.3,5.1-11.1c13.8-10.5,25.6-22.9,34.6-37.9c4.6-7.6,8-15.6,9.8-24.3
			c2.9-13.7,0.7-26.7-5.6-39.1c-6-11.8-14.5-21.5-24.3-30.2c-1.9-1.7-3.9-3.3-5.7-5.1c-0.6-0.6-1-1.6-0.9-2.4
			c0.5-4.8,1.5-9.5,1.8-14.2c0.3-5.4,0.4-10.8,0-16.2c-0.3-5.1-1-10.2-2-15.2c-2.9-14.4-8.6-27.6-17.9-39.2
			c-12.6-15.7-29.1-25.5-48-31.7c-6.3-2.1-12.7-2.6-19.2-3.6C213.4,52.8,209.8,52.3,206.1,51.7z"/>
		<path class="st0" d="M261.8,278.8c2.6-2.1,5.1-4,7.5-6.1c1.4-1.2,2.7-2.6,4-3.9c3.3-3.1,8.2-3.1,11.4-0.1
			c3.1,2.9,3.3,7.9,0.3,11.2c-6.3,7-13.8,12.5-21.8,17.4c-11.5,7.1-23.8,12.1-36.8,15.5c-9,2.4-18.2,3.9-27.5,4.4
			c-4.2,0.2-8.4,0.6-12.6,0.5c-9.9-0.2-19.6-1.3-29.3-3.4c-12.3-2.7-24-6.8-34.9-13.2c-8.6-5-16.3-11.1-21.8-19.6
			c-3.6-5.5-0.2-12.5,6.3-12.8c2.6-0.1,5.1,0.9,6.6,3.1c6.9,10.2,17,16.1,28,20.8c7.9,3.4,16.1,5.7,24.5,7.1
			c9.3,1.6,18.8,2.4,28.3,1.8c2.7-0.2,2.8-0.4,3.1-3.1c2.2-20.4,7.7-39.8,19.3-57c3.4-5.1,7.5-9.5,12.9-12.7
			c8.6-5,16.9-3.3,22.8,4.8c4,5.5,6,11.8,7.5,18.3c1.8,8.2,2.1,16.5,1.9,24.8c0,0.4,0,0.8,0,1.2
			C261.3,278.1,261.4,278.2,261.8,278.8z"/>
		<path class="st0" d="M177,151.2c-0.4,15-3.7,29.4-12.5,42.1c-5.7,8.2-12.8,14.6-22.5,17.6c-11.9,3.7-22.6,1-32.2-6.5
			c-9.7-7.6-15.4-17.8-19.1-29.3c-2.8-8.8-4-17.8-3.6-27c0.7-15.7,4.8-30.3,14.8-42.8c6.6-8.3,15-14.1,25.7-15.6
			c9.6-1.3,18.4,1.5,26,7.3c10,7.7,15.9,18.1,19.7,29.8C175.8,134.7,176.8,142.8,177,151.2z M155.5,188
			C155.3,188,155.5,188.1,155.5,188c0.3-0.3,0.6-0.6,0.8-0.9c6.2-8.9,9.1-19.1,10-29.7c0.8-9.5,0-18.9-3-28
			c-3.1-9.3-7.6-17.8-15.5-23.9c-9.9-7.7-21.6-7.7-31.5,0c-10,7.8-14.8,18.8-17.3,30.8c-1.8,8.3-1.8,16.8-0.7,25.3
			c1.3,9.4,4.4,18.2,9.7,26.1c0.7,1.1,1.7,2.1,2.5,3.2c0.4-0.6,0.3-1,0.3-1.4c-0.5-3.2-1.3-6.4-1.5-9.6c-0.1-3.8,0.1-7.6,0.6-11.3
			c1.1-8,4.2-15.2,10.1-21c7.3-7.1,18-7,25.3,0c6.8,6.6,9.8,15,10.6,24.1C156.3,177,155.7,182.5,155.5,188z"/>
		<path class="st0" d="M237.5,89.4c11.1,0.2,20.3,5.3,27.8,13.7c8.2,9.2,12.8,20.2,15.2,32.3c1.9,9.6,2,19.2,0.5,28.8
			c-2.2,13.6-7.3,26-17,36.1c-5.7,5.9-12.4,10.1-20.5,11.6c-10.6,2-20.1-0.9-28.4-7.5c-10.3-8.1-16.2-19.1-19.7-31.4
			c-2.4-8.5-3.6-17.1-3-25.9c1.2-18.2,6.5-34.8,20.3-47.6C219.3,93.2,227.5,89.5,237.5,89.4z M260,188.3c0.4-0.1,0.5-0.1,0.6-0.2
			c0.2-0.2,0.4-0.5,0.6-0.8c6.2-8.9,9.2-18.9,10.1-29.5c0.9-10.3,0.1-20.5-3.5-30.3c-3.1-8.6-7.5-16.4-14.8-22
			c-6.7-5.2-14.2-7.4-22.7-4.8c-8.2,2.5-13.9,8.1-18.4,15.2c-6.4,10-9.1,21.1-9.4,32.8c-0.1,5.7,0.7,11.4,1.5,17
			c1.2,7.9,4.3,15.1,8.7,21.7c0.8,1.3,1.9,2.4,3,3.8c-0.5-4.8-1.2-9.1-1.4-13.5c-0.4-9.7,1.8-18.8,7.6-26.7c3.3-4.4,7.4-7.7,13-8.5
			c7.3-1.1,13.1,1.9,17.5,7.5c7.7,9.7,9.6,21,8.2,33C260.5,184.7,260.3,186.4,260,188.3z"/>
	</g>
</g>
</svg>
