<svg xmlns="http://www.w3.org/2000/svg" viewBox="0 0 45 32" fill="#d2002e">
	<path d="M1.5 28.4c0-2.1 1.2-5.7 1.2-11.8 0-4.6-2.8-4-2.8-8.5 0-1.9 0.2-3.7 0.4-5.4l0 0.2c0 0 0 0 0 0 0-0.3 0.1-0.6 0.4-0.7l0 0c0.3 0 0.2 0.5 0.2 0.8l0.1 5.1c0 1.8 0.2 2.4 1 2.4 0.8 0 0.9-0.6 1-2.4l0.1-4.9c0-0.5 0-1 0.4-1 0.3 0 0.3 0.6 0.3 1l0.1 4.9c0 1.8 0.3 2.4 1 2.4 0.8 0 0.9-0.6 1-2.4l0.1-5.1c0-0.3 0-0.8 0.3-0.8 0.2 0.2 0.4 0.4 0.4 0.7 0 0 0 0 0 0l0 0c0.2 1.6 0.3 3.4 0.4 5.2l0 0c0 4.4-2.8 3.8-2.8 8.5 0 6.1 1.3 9.7 1.3 11.8 0 2.1-0.7 3.6-2 3.6-1.3 0-2-1.5-2-3.6zM10.7 18.7c0 4.1 1.4 7.7 1.4 9.7 0 2.1-0.7 3.6-2 3.6s-2-1.5-2-3.6c0-3 0.9-8.2 0.9-11.8v-13.5c0-1.8 0.1-3.2 0.8-3.2 1 0 4.1 4 4.1 7.9 0 3.9-3.2 4.8-3.2 10.8zM44.7 17c0-0.2 0-0.3 0-0.5 0-8.6-6.9-15.5-15.5-15.5s-15.5 6.9-15.5 15.5c0 8.6 6.9 15.5 15.5 15.5 0 0 0 0 0 0h0c0.1 0 0.2 0 0.3 0 8.3 0 15.1-6.7 15.2-15l0 0zM42.4 17c0 0.1 0 0.3 0 0.5 0 7.3-5.9 13.2-13.2 13.2s-13.2-5.9-13.2-13.2c0-7.3 5.9-13.2 13.2-13.2 0 0 0 0 0 0h0c0.1 0 0.1 0 0.2 0 7.1 0 12.8 5.7 13 12.7l0 0z" />
</svg>
