<svg xmlns="http://www.w3.org/2000/svg" viewBox="0 0 34 32" fill="#d2002e">
	<path d="M31.1 15.6c1.8 1.9 2.7 4 2.5 6.5-0.1 2.2-0.8 4.2-2 6.3-0.4 0.4-1 1-1.9 1.9-1 0.9-1.7 1.3-2 1.2-0.2-0.4-0.3-0.8-0.4-1.2-0.2-0.9 0.2-1.6 1.1-2.2 0.4-0.6 0.9-1.3 1.5-2.2 0.9-1.5 1.3-3 1.3-4.4-0.1-1.9-1.1-3.6-3.1-5.2 0.2-0.1 0.3-0.7 0.3-2 0-2.6-0.7-4.8-2.2-6.5-1.7-1.9-4.2-2.9-7.7-3 1.1-0.1 1.6-0.3 1.6-0.7 0-0.1 0-0.2-0.1-0.3-0.5-0.8-1.6-1.3-3.2-1.3-1.6 0-2.8 0.3-3.5 1 0 0.1 0 0.1 0 0.2 0 0.2 0.2 0.4 0.5 0.7 0.1 0.1 0.4 0.2 0.8 0.4-3.2 0.1-5.6 1.1-7.2 3-1.5 1.8-2.3 4-2.3 6.6 0 1.1 0.1 1.7 0.3 1.8-1.8 1.2-2.9 2.5-3.4 4-0.2 0.7-0.3 1.4-0.2 2 0.2 2.1 1.3 4 3.1 5.8 0.9 0.5 1.4 1.2 1.5 2.1 0 0.4 0 0.9-0.2 1.3-0.7 0.2-1.6-0.3-2.9-1.4-0.6-0.5-1.1-1.1-1.6-1.7-1.2-1.8-1.8-3.8-1.9-5.9-0.1-2.4 0.6-4.6 2.3-6.5v-1.3c0-2.1 0.6-4.1 1.8-6.2 1.7-2.9 4.1-4.8 7.4-5.8 1-1.7 2.8-2.6 5.4-2.6 2.6 0 4.4 0.8 5.5 2.6 3.4 1 5.9 2.9 7.4 5.8 0.9 1.7 1.3 3.6 1.3 5.7v1.5zM12.2 19.7c-1.1 0-2-0.5-2.9-1.5-0.9-1-1.3-2.3-1.3-3.9 0-2.7 0.8-4.5 2.5-5.5 0.5-0.3 1.1-0.4 1.7-0.4 1.1 0 2.1 0.5 2.9 1.6 0.7 1 1 2.4 1 4-0.1 1.8-0.5 3.2-1.2 4.2-0.8 1-1.6 1.5-2.6 1.5zM12.2 9.4c-1.1 0-1.9 0.6-2.5 1.7-0.5 0.9-0.7 2-0.7 3.1 0 0.8 0.2 1.7 0.6 2.5 0.2 0.4 0.4 0.6 0.6 0.9-0.2-0.8-0.2-1.5-0.1-2 0.1-1.1 0.5-1.7 1.2-2 0.3-0.1 0.6-0.2 1-0.2 1.2 0 1.9 0.8 2 2.3 0 0.6-0.1 1.3-0.3 2.1 0.4-0.5 0.8-1.1 1-2 0.2-0.5 0.2-1 0.2-1.5 0.1-0.8 0-1.7-0.3-2.5-0.3-0.9-0.8-1.5-1.4-2-0.4-0.2-0.8-0.4-1.2-0.4zM25.7 23.5c0.7 0 1.1 0.2 1.1 0.6 0 0 0 0-0.1 0.2l-0.1 0.1c0 0.3-0.2 0.5-0.6 0.8 0 0-0.1 0.1-0.1 0.2-0.1 0.2-0.1 0.4-0.1 0.6-0.4 0.7-0.6 1-0.6 1-0.4 0.3-1 0.7-2 1.2 0 0.1-0.4 0.3-1.1 0.5-0.2 0.1-0.6 0.3-1.3 0.4-0.5 0-1.2 0.1-2.2 0.3h-2.2c-0.6 0-1.6-0.2-2.8-0.5-0.6-0.1-1.3-0.3-2-0.6-0.1-0.1-0.6-0.5-1.5-1.2-0.3-0.2-0.6-0.6-0.9-1-0.1-0.2-0.1-0.4-0.1-0.5 0-0.4 0.2-0.6 0.7-0.6 0.4 0 0.6 0.1 0.6 0.3 0 0 0.1 0 0.2 0.1 0.1 0.1 0.1 0.1 0.1 0.1 0.1 0.1 0.4 0.4 0.9 0.9 0 0 0.6 0.4 1.7 1.2 1.2 0.5 2.3 0.8 3.5 0.8 0.3 0 0.5 0 0.8 0 0.3 0 0.6 0 0.8-0.1 0-0.1 0-0.4 0-0.7l0.1-1c0.1-1 0.1-1.6 0.1-1.7 1.4-2.7 2.7-3.9 4-3.7 1.2 0.2 1.7 1.2 1.7 3 0 0.5-0.1 1-0.2 1.4 0.1 0 0.2-0.1 0.3-0.4 0.1-0.2 0.3-0.4 0.7-0.6 0-0.2 0-0.3 0-0.4v-0.4h0.3c0-0.3 0.1-0.4 0.4-0.4zM21.8 19.7c-0.9 0-1.9-0.5-2.8-1.5-0.9-1-1.4-2.3-1.4-3.9-0.1-2.6 0.8-4.4 2.6-5.5 0.5-0.3 1.1-0.4 1.6-0.4 1.8 0 3.1 1.2 3.6 3.5 0.2 0.7 0.2 1.4 0.2 2.2 0 1.5-0.3 2.7-0.8 3.8-0.7 1.3-1.7 2-3 2zM21.8 9.4c-0.7 0-1.4 0.5-2.2 1.4-0.7 0.9-1.1 2.1-1.1 3.5 0 1.4 0.5 2.5 1.5 3.3-0.2-0.8-0.2-1.5-0.1-2 0.1-1.1 0.4-1.7 1-2 0.3-0.1 0.6-0.2 0.9-0.2 1.3 0 2 0.8 2.1 2.3 0 0.6 0 1.3-0.2 2.1 0.8-0.8 1.2-2 1.3-3.5 0-1.2-0.2-2.2-0.7-3.2-0.6-1.1-1.4-1.7-2.5-1.7z"/>
</svg>
