<svg xmlns="http://www.w3.org/2000/svg" viewBox="0 0 520 520">
<use href="#star" stroke="#C02030" stroke-width="60" />
<path fill="white" id="star" d="M 280 317 c39.5 57.645 76.281 86.541 110.222 86.541 13.934 0 26.643-6.171 38.006-18.514 11.387-12.342 17.117-26.644 17.117-42.902 0-42.316-45.646-67.393-136.768-75.326v-14.693c91.12-7.836 136.768-32.961 136.768-75.276 0-15.379-5.51-29.484-16.407-42.218-10.922-12.832-23.827-19.199-38.716-19.199-34.455 0-71.163 29.142-110.222 87.179l-13.248-7.641c19.566-39.573 29.288-73.023 29.288-100.45 0-42.316-19.321-63.523-57.866-63.523-18.61 0-32.912 5.73-42.952 17.143-9.967 11.362-14.986 26.398-14.986 44.96 0 27.476 9.771 61.417 29.337 101.871l-13.298 7.641c-39.059-58.037-75.767-87.179-110.172-87.179-13.983 0-26.619 6.221-38.006 18.514-11.437 12.293-17.117 26.594-17.117 42.903 0 42.707 45.548 67.931 136.718 75.276v14.693c-91.17 7.935-136.718 33.011-136.718 75.326 0 15.329 5.411 29.435 16.406 42.168 10.922 12.782 23.778 19.248 38.717 19.248 33.892 0 70.722-28.896 110.172-86.541l13.298 7.052c-19.566 40.357-29.337 74.592-29.337 102.508 0 18.562 5.02 33.6 14.986 44.961 10.04 11.411 24.342 17.094 42.952 17.094 38.545 0 57.866-20.913 57.866-62.838 0-27.377-9.722-61.367-29.288-101.725l13.248-7.053z" />
</svg>
